<?xml version="1.0" standalone="no"?>
<!DOCTYPE svg PUBLIC "-//W3C//DTD SVG 20010904//EN"
 "http://www.w3.org/TR/2001/REC-SVG-20010904/DTD/svg10.dtd">
<svg version="1.0" xmlns="http://www.w3.org/2000/svg"
 width="300.000000pt" height="300.000000pt" viewBox="0 0 300.000000 300.000000"
 preserveAspectRatio="xMidYMid meet">
<metadata>
Created by potrace 1.10, written by Peter Selinger 2001-2011
</metadata>
<g transform="translate(0.000000,300.000000) scale(0.100000,-0.100000)"
fill="#000000" stroke="none">
<path d="M1432 2748 c-23 -23 -42 -45 -42 -49 0 -9 29 19 69 64 38 42 19 32
-27 -15z"/>
<path d="M760 2741 c-25 -22 -42 -42 -39 -45 3 -3 25 15 49 39 54 55 50 57
-10 6z"/>
<path d="M950 2725 c24 -25 46 -45 49 -45 6 0 -28 40 -58 68 -43 39 -37 23 9
-23z"/>
<path d="M2615 2710 c16 -16 31 -28 33 -25 7 7 -39 55 -52 55 -5 0 3 -13 19
-30z"/>
<path d="M292 2606 c-20 -19 -34 -37 -31 -40 3 -3 23 12 44 34 48 49 39 53
-13 6z"/>
<path d="M1610 2596 c-25 -23 -51 -51 -59 -62 -8 -10 13 8 47 41 56 54 67 65
60 65 -2 0 -23 -20 -48 -44z"/>
<path d="M1925 2578 l-60 -63 63 60 c34 33 62 61 62 62 0 8 -10 -1 -65 -59z"/>
<path d="M518 2615 c-29 -16 -31 -21 -48 -107 l-11 -58 -213 0 c-194 0 -214
-2 -229 -18 -26 -29 -22 -43 9 -32 14 6 44 10 67 10 l42 0 -32 -20 c-17 -10
-37 -28 -42 -39 -8 -13 -11 -269 -11 -805 l0 -785 36 -25 36 -24 -28 -4 c-16
-2 -44 2 -62 9 -27 11 -32 11 -32 -1 0 -8 7 -22 16 -30 14 -14 83 -16 609 -16
l593 0 124 -29 c131 -31 293 -68 553 -126 88 -20 216 -49 285 -65 233 -54 355
-80 381 -80 31 0 76 39 83 72 3 12 31 133 62 268 30 135 73 322 94 415 21 94
59 258 84 365 79 343 107 473 101 478 -2 3 0 11 7 19 8 11 7 12 -5 8 -29 -12
-65 -137 -123 -430 -8 -38 -17 -77 -21 -85 -8 -18 -7 -16 -16 -65 -5 -22 -15
-69 -23 -105 -21 -93 -40 -174 -58 -255 -13 -59 -37 -162 -72 -310 -4 -16 -8
-37 -9 -45 -3 -22 -44 -189 -57 -234 -17 -54 -40 -62 -130 -43 -112 24 -188
44 -195 51 -7 7 43 0 97 -14 19 -5 63 -14 98 -21 59 -11 64 -11 86 10 12 12
23 27 24 34 2 22 51 251 77 355 14 57 25 113 25 126 0 12 5 27 12 34 7 7 9 12
6 12 -4 0 -2 15 3 33 12 37 16 54 30 122 6 28 15 66 19 85 4 19 24 107 44 195
20 88 45 196 55 240 10 44 24 107 31 140 7 33 19 84 26 114 20 81 -4 108 -116
126 -25 4 -52 9 -60 11 -109 24 -146 31 -154 26 -5 -2 -2 -8 5 -12 21 -12 213
-58 269 -66 54 -7 55 -9 39 -51 -5 -15 -26 -100 -46 -188 -33 -149 -51 -227
-132 -585 -16 -74 -46 -207 -66 -295 -19 -88 -44 -194 -54 -235 -10 -41 -25
-108 -32 -148 -12 -66 -16 -73 -34 -68 -35 9 -325 76 -465 107 -396 88 -440
95 -417 72 4 -3 33 -12 65 -19 31 -7 77 -18 102 -24 25 -7 53 -13 63 -15 10
-2 28 -7 39 -11 11 -3 30 -7 41 -9 52 -7 263 -58 272 -66 15 -14 -23 -11 -99
10 -39 10 -109 26 -156 36 -47 9 -102 24 -123 33 -20 8 -40 13 -43 9 -3 -3
-20 -1 -37 4 -47 15 -67 19 -122 29 -73 12 -228 47 -320 71 -44 12 -100 25
-125 29 l-45 7 60 3 c33 1 319 2 635 2 325 -1 588 3 605 9 59 18 56 -12 57
775 0 415 4 721 9 718 5 -3 9 -16 9 -29 0 -37 44 -60 160 -84 58 -12 130 -28
160 -36 30 -8 63 -15 73 -15 10 0 29 -7 42 -16 22 -15 25 -15 25 -1 0 19 -24
44 -48 51 -9 3 -91 21 -182 41 -91 20 -173 39 -182 41 -16 5 -17 17 -15 107 4
102 -4 145 -26 159 -7 4 -271 8 -589 8 l-576 0 -199 45 c-109 25 -234 54 -278
65 -151 36 -317 70 -338 70 -12 -1 -34 -7 -49 -15z m180 -46 c48 -11 103 -24
122 -29 19 -5 55 -13 80 -19 25 -5 74 -16 110 -24 36 -9 99 -23 140 -31 64
-14 159 -38 209 -52 8 -3 11 -8 7 -12 -10 -9 -956 -9 -956 1 0 4 6 7 14 7 30
0 65 42 86 104 12 36 27 67 33 70 25 10 70 5 155 -15z m1834 -184 c9 -19 9
-28 0 -37 -9 -9 -12 -9 -12 0 0 6 -17 23 -37 37 l-38 25 38 0 c30 0 40 -5 49
-25z m-47 -825 l0 -800 -1200 0 -1200 0 0 800 0 800 1200 0 1200 0 0 -800z"/>
<path d="M549 2544 c-7 -9 -14 -22 -15 -29 -1 -7 -5 -21 -8 -32 -4 -12 1 -27
14 -41 18 -19 32 -22 103 -23 45 -1 87 0 92 1 6 1 44 2 85 1 85 -1 123 12 66
23 -20 4 -103 6 -186 5 -82 0 -150 2 -151 5 -1 15 14 96 18 96 2 0 12 -4 21
-9 19 -10 314 -71 340 -70 22 0 -37 23 -113 42 -161 41 -187 47 -219 47 -19 0
-39 -7 -47 -16z"/>
<path d="M210 1780 c0 -292 3 -451 10 -455 5 -3 10 2 11 12 0 10 2 27 5 38 4
20 6 81 4 120 -1 11 -1 85 -1 165 0 80 0 154 0 165 0 11 0 88 0 170 0 83 0
158 0 168 0 41 17 46 135 43 63 -2 119 -7 126 -11 9 -5 11 -4 6 3 -5 8 0 12
13 12 10 0 21 -5 23 -12 3 -9 11 -9 34 0 31 12 221 11 241 -1 6 -4 14 -4 16 0
5 7 289 9 312 3 6 -2 18 0 28 5 11 4 23 3 29 -3 7 -7 18 -8 27 -3 18 10 297 8
307 -1 3 -4 16 -3 28 1 26 10 217 8 233 -2 7 -4 21 -2 32 5 16 9 23 10 32 1 7
-7 20 -8 33 -3 27 10 226 7 243 -3 6 -4 14 -3 18 3 8 13 45 13 45 0 0 -6 9 -6
25 0 28 11 73 8 94 -4 10 -7 12 -34 9 -112 -2 -57 -3 -106 0 -109 2 -2 3 -61
2 -132 -2 -158 -2 -195 -1 -208 5 -33 1 -289 -4 -306 -4 -11 -2 -19 5 -19 6 0
9 -4 6 -9 -3 -4 -6 -92 -7 -194 l-1 -185 -26 -5 c-15 -3 -31 -2 -37 3 -5 4
-19 4 -30 -1 -30 -11 -93 -11 -117 2 -15 8 -22 8 -27 0 -4 -6 -27 -11 -52 -10
-24 1 -53 -1 -65 -5 -31 -10 -4 -47 -432 589 -51 77 -105 150 -118 163 -29 25
-79 29 -110 8 -11 -8 -65 -81 -119 -162 -84 -126 -100 -145 -109 -130 -6 10
-85 126 -176 259 -177 258 -191 272 -247 245 -17 -8 -60 -60 -110 -133 -178
-262 -240 -352 -290 -422 l-53 -74 0 -180 0 -179 530 0 c304 0 530 4 530 9 0
5 -7 12 -16 15 -9 3 -238 6 -510 7 -271 0 -496 4 -498 8 -3 4 -6 48 -7 98 l-3
91 96 143 c161 241 353 524 359 529 3 3 73 -94 154 -215 82 -121 168 -247 191
-280 23 -33 93 -137 156 -232 l113 -172 253 0 c229 -1 284 5 236 23 -21 8
-345 9 -366 1 -19 -8 -54 35 -161 195 -95 142 -126 181 -127 159 0 -9 27 -53
60 -99 33 -46 60 -87 60 -91 0 -4 6 -14 13 -21 27 -29 67 -95 67 -111 0 -15
-4 -16 -20 -7 -12 6 -25 22 -30 36 -5 13 -13 24 -18 24 -5 0 -15 12 -22 28 -8
15 -51 78 -95 140 -44 62 -96 137 -115 167 -56 87 -158 239 -167 250 -17 20
-73 104 -73 109 0 3 -9 17 -21 30 -12 13 -20 27 -20 30 2 9 -54 56 -65 56 -14
-1 -47 -32 -68 -65 -11 -16 -23 -34 -28 -40 -4 -5 -20 -28 -34 -50 -40 -61
-128 -189 -134 -195 -12 -12 -60 -87 -60 -94 0 -14 -90 -134 -105 -140 -31
-12 -12 27 79 159 47 68 142 207 218 320 128 191 132 191 249 22 30 -43 61
-89 69 -101 54 -84 154 -225 175 -249 44 -46 69 -34 131 63 16 25 37 54 47 65
10 11 30 42 45 68 25 46 63 77 96 77 16 0 86 -67 86 -83 0 -5 12 -26 28 -46
15 -20 32 -44 37 -53 6 -10 83 -126 173 -258 90 -133 165 -247 169 -255 3 -9
-1 -15 -11 -15 -8 0 -34 28 -57 63 -24 34 -46 64 -51 65 -4 2 -8 8 -8 13 0 11
-105 165 -127 187 -7 8 -11 17 -8 22 3 5 2 10 -2 12 -12 5 -63 75 -63 86 0 5
-9 17 -20 27 -11 10 -20 24 -20 30 0 7 -6 15 -12 18 -7 3 -22 22 -33 43 -11
22 -34 55 -52 74 -29 31 -34 33 -56 21 -20 -11 -50 -52 -102 -139 -6 -9 -32
-50 -59 -90 -27 -40 -46 -75 -42 -79 3 -4 13 2 21 13 39 50 185 276 185 285 0
6 4 9 8 7 5 -1 93 -129 197 -283 104 -154 204 -302 222 -328 19 -26 38 -59 43
-73 l10 -24 262 0 263 0 0 670 0 670 -1072 0 -1072 -1 -1 -449z"/>
<path d="M1907 2096 c-27 -7 -67 -26 -90 -42 -101 -71 -136 -209 -83 -319 34
-68 91 -117 162 -140 172 -54 350 92 331 271 -17 161 -170 271 -320 230z m98
-31 c88 -11 153 -69 181 -161 20 -68 18 -93 -16 -160 -22 -45 -41 -67 -77 -89
-26 -17 -50 -29 -53 -28 -3 1 -24 -2 -46 -7 -60 -14 -133 11 -184 63 -53 52
-61 73 -62 164 -2 55 2 77 15 91 9 10 17 24 17 30 0 26 148 120 170 107 3 -2
27 -6 55 -10z"/>
<path d="M1879 2030 c-66 -35 -119 -118 -119 -184 1 -77 53 -156 124 -190 53
-25 151 -18 195 13 53 38 82 85 91 148 7 51 6 64 -16 109 -27 56 -41 72 -97
103 -48 27 -128 27 -178 1z m184 -47 c42 -27 77 -89 77 -138 0 -106 -113 -195
-210 -166 -139 42 -176 212 -63 298 62 47 129 49 196 6z"/>
<path d="M668 1600 c-37 -37 -33 -60 21 -140 21 -30 40 -60 42 -65 2 -6 19
-31 37 -55 18 -25 54 -74 80 -110 58 -79 92 -99 128 -75 14 9 29 27 34 41 11
29 3 49 -60 139 -22 33 -71 105 -107 160 -94 145 -120 160 -175 105z m61 0
c16 -8 68 -80 204 -282 21 -32 43 -60 48 -63 13 -9 11 -59 -3 -73 -27 -27 -55
-13 -101 51 -106 150 -217 317 -217 326 0 11 36 51 46 51 3 0 13 -4 23 -10z"/>
<path d="M988 1143 c-8 -10 -19 -30 -25 -45 -10 -23 -8 -31 15 -61 36 -48 59
-57 94 -40 59 30 64 87 13 132 -40 35 -75 40 -97 14z m83 -32 c35 -35 36 -52
6 -87 l-23 -26 -37 34 c-42 40 -46 59 -17 88 27 27 36 25 71 -9z"/>
<path d="M1278 2595 c-44 -41 -51 -56 -11 -25 23 18 59 60 51 60 -2 0 -20 -16
-40 -35z"/>
<path d="M1425 2580 c27 -27 51 -48 53 -46 4 5 -86 96 -96 96 -3 0 16 -22 43
-50z"/>
<path d="M1760 2575 c53 -54 60 -60 60 -51 0 8 -99 106 -107 106 -4 0 17 -25
47 -55z"/>
<path d="M2090 2575 c30 -30 57 -55 59 -55 3 0 -19 25 -49 55 -30 30 -57 55
-59 55 -3 0 19 -25 49 -55z"/>
<path d="M2280 2606 c-14 -12 -36 -36 -50 -52 -13 -16 -1 -7 28 21 47 45 57
56 50 55 -2 0 -14 -11 -28 -24z"/>
<path d="M2585 2580 c-27 -27 -46 -50 -42 -50 5 0 30 23 58 50 27 28 46 50 42
50 -5 0 -31 -22 -58 -50z"/>
<path d="M2431 2565 c35 -37 45 -44 33 -22 -12 22 -47 57 -57 57 -5 0 6 -16
24 -35z"/>
<path d="M2550 2073 c0 -4 -2 -311 -3 -680 -2 -482 -6 -676 -14 -684 -8 -8
-124 -11 -400 -10 -213 0 -406 -2 -428 -5 -98 -16 23 -23 416 -23 391 -1 417
0 432 17 16 17 17 80 17 700 0 443 -3 683 -10 687 -5 3 -10 3 -10 -2z"/>
<path d="M438 595 c12 -23 62 -69 62 -57 0 4 -16 24 -36 43 -22 20 -32 26 -26
14z"/>
<path d="M760 604 c0 -13 58 -69 65 -63 2 3 -11 21 -30 39 -19 19 -35 29 -35
24z"/>
<path d="M917 582 c-38 -40 -34 -51 5 -13 17 17 29 33 27 36 -3 3 -18 -8 -32
-23z"/>
<path d="M1110 577 c19 -20 36 -34 39 -31 6 6 -30 44 -54 56 -12 7 -6 -4 15
-25z"/>
<path d="M550 483 c0 -10 90 -97 110 -108 8 -4 -12 20 -45 54 -61 63 -65 66
-65 54z"/>
<path d="M880 484 c0 -13 98 -109 105 -103 2 3 -20 30 -50 59 -30 30 -55 50
-55 44z"/>
<path d="M1432 437 c-29 -29 -52 -56 -52 -60 0 -7 73 63 99 96 26 33 5 17 -47
-36z"/>
<path d="M442 437 c-23 -23 -42 -47 -42 -52 0 -6 20 12 45 38 41 44 50 57 42
57 -2 0 -22 -19 -45 -43z"/>
<path d="M765 430 c-27 -27 -44 -50 -38 -50 10 0 93 84 93 95 0 10 -6 5 -55
-45z"/>
<path d="M1100 435 c-24 -25 -40 -45 -35 -45 10 0 66 55 79 78 13 22 1 13 -44
-33z"/>
<path d="M1220 474 c0 -5 18 -28 40 -49 22 -21 40 -35 40 -29 0 5 -18 28 -40
49 -22 21 -40 35 -40 29z"/>
<path d="M1561 463 c16 -21 46 -50 80 -78 13 -10 -1 6 -31 38 -53 56 -76 74
-49 40z"/>
<path d="M2736 420 c-20 -22 -36 -43 -36 -47 0 -4 10 4 22 17 13 14 33 35 46
48 13 12 19 22 14 22 -5 0 -26 -18 -46 -40z"/>
<path d="M605 268 l-50 -51 43 32 c35 27 72 71 59 71 -1 0 -25 -23 -52 -52z"/>
<path d="M756 270 c46 -49 54 -55 54 -45 0 10 -82 95 -92 95 -5 0 12 -22 38
-50z"/>
<path d="M1050 313 c0 -10 74 -83 85 -83 10 0 5 6 -40 50 -25 24 -45 39 -45
33z"/>
<path d="M1727 295 c25 -36 63 -72 63 -59 0 6 -19 28 -42 49 -36 35 -38 36
-21 10z"/>
<path d="M1931 275 c-22 -24 -41 -48 -41 -52 0 -7 35 29 74 75 34 40 10 23
-33 -23z"/>
<path d="M2061 293 c34 -38 41 -45 69 -68 14 -10 0 6 -30 38 -55 58 -84 80
-39 30z"/>
<path d="M2261 275 c-23 -25 -38 -45 -34 -45 5 0 29 20 53 45 24 25 39 45 34
45 -6 0 -30 -20 -53 -45z"/>
<path d="M2597 280 c-23 -22 -37 -40 -32 -40 6 0 29 18 50 40 51 52 37 52 -18
0z"/>
<path d="M930 263 l-45 -46 38 28 c31 23 66 65 54 65 -1 0 -23 -21 -47 -47z"/>
<path d="M1270 275 c-19 -19 -31 -35 -27 -35 4 0 23 16 43 35 19 19 32 35 27
35 -5 0 -24 -16 -43 -35z"/>
<path d="M1395 291 c3 -5 24 -24 48 -42 l42 -33 -40 42 c-35 38 -66 57 -50 33z"/>
</g>
</svg>
